<svg width="48" height="48" viewBox="0 0 48 48" fill="none" xmlns="http://www.w3.org/2000/svg" role="img" aria-label="Nova Analytics">
  <defs>
    <linearGradient id="nova-grad" x1="6" y1="42" x2="42" y2="6" gradientUnits="userSpaceOnUse">
      <stop stop-color="#22D3EE"/>
      <stop offset="0.52" stop-color="#7C5CFF"/>
      <stop offset="1" stop-color="#FF7AC6"/>
    </linearGradient>
    <radialGradient id="nova-core" cx="0.5" cy="0.5" r="0.5">
      <stop stop-color="#FFE9B8"/>
      <stop offset="0.55" stop-color="#FFC857"/>
      <stop offset="1" stop-color="#FF9F43" stop-opacity="0"/>
    </radialGradient>
  </defs>
  <!-- four-point nova burst: long axes -->
  <path d="M24 1 L27.4 20.6 L24 24 L20.6 20.6 Z" fill="url(#nova-grad)"/>
  <path d="M24 47 L20.6 27.4 L24 24 L27.4 27.4 Z" fill="url(#nova-grad)"/>
  <path d="M1 24 L20.6 20.6 L24 24 L20.6 27.4 Z" fill="url(#nova-grad)"/>
  <path d="M47 24 L27.4 27.4 L24 24 L27.4 20.6 Z" fill="url(#nova-grad)"/>
  <!-- short diagonal rays -->
  <path d="M38.1 9.9 L26.8 21.2 L24 24 L26.8 21.2 Z" fill="url(#nova-grad)" opacity="0.85"/>
  <g opacity="0.7">
    <path d="M9.9 9.9 L22.6 22.6 L20 24 Z" fill="url(#nova-grad)"/>
    <path d="M38.1 38.1 L25.4 25.4 L28 24 Z" fill="url(#nova-grad)"/>
    <path d="M9.9 38.1 L22.6 25.4 L24 28 Z" fill="url(#nova-grad)"/>
    <path d="M38.1 9.9 L25.4 22.6 L24 20 Z" fill="url(#nova-grad)"/>
  </g>
  <!-- glowing core -->
  <circle cx="24" cy="24" r="9" fill="url(#nova-core)"/>
  <circle cx="24" cy="24" r="3.2" fill="#FFFDF7"/>
</svg>
